PathFileType	3	(X/Y/Z)	uphill_walking_calibrated.trc																																																																												
DataRate	CameraRate	NumFrames	NumMarkers	Units	OrigDataRate	OrigDataStartFrame	OrigNumFrames																																																																								
100	100	4	26	mm	100	2978	556																																																																								
Frame#	Time	RAcromium			LAcromium			C7			Clavicle			VSacral			RASIS			LASIS			RHip			LHip			RKneeLat			RKneeMed			LKneeMed			LKneeLat			LShankFront			RShankFront			RAnkleLat			RAnkleMed			LAnkleMed			LAnkleLat			LToeLat			LToeTip			RToeTip			RToeLat			RHeel			LHeel			T10		
		X1	Y1	Z1	X2	Y2	Z2	X3	Y3	Z3	X4	Y4	Z4	X5	Y5	Z5	X6	Y6	Z6	X7	Y7	Z7	X8	Y8	Z8	X9	Y9	Z9	X10	Y10	Z10	X11	Y11	Z11	X12	Y12	Z12	X13	Y13	Z13	X14	Y14	Z14	X15	Y15	Z15	X16	Y16	Z16	X17	Y17	Z17	X18	Y18	Z18	X19	Y19	Z19	X20	Y20	Z20	X21	Y21	Z21	X22	Y22	Z22	X23	Y23	Z23	X24	Y24	Z24	X25	Y25	Z25	X26	Y26	Z26
2978	29.77	1174.4429	1416.201	-479.05301	1161.1974	1425.507	-742.19012	1138.1335	1484.8995	-601.49066	1201.431	1294.01	-621.09198	791.1427	1073.7266	-586.38593	960.94061	1010.1106	-466.34433	967.17401	1018.0879	-726.77667	885.46667	947.22729	-421.4035	881.43225	952.22028	-783.69263	961.04657	497.75842	-453.06219	950.54315	492.63025	-578.31091	894.58087	497.39096	-611.77045	915.00397	498.42303	-723.30963	916.38422	394.8678	-674.58832	981.58508	413.4426	-505.08936	597.24713	254.19536	-495.63983	627.78571	243.51775	-576.19385	707.18817	105.11007	-613.76471	681.62354	85.268387	-697.58148	833.31909	35.18335	-727.58667	897.55719	44.42054	-657.98242	677.91895	50.553558	-524.08875	620.64539	103.30271	-453.02002	490.28055	277.18686	-553.72443	602.03577	15.798182	-655.3728	907.9212	1257.8235	-583.86353
2979	29.78	1174.1873	1418.2675	-478.87006	1162.334	1427.562	-741.48071	1138.0405	1487.3578	-600.99982	1201.4763	1295.807	-620.58856	790.61456	1076.5844	-587.56183	960.42572	1013.9469	-466.92209	967.58173	1020.2889	-726.86322	884.58374	951.56873	-420.73578	880.71112	954.14313	-783.87006	974.07996	504.75287	-453.60202	962.69653	499.80194	-578.23798	883.01825	498.61124	-612.08655	904.17291	499.65268	-723.40485	905.23132	396.23666	-673.71069	997.34387	421.32758	-506.14453	616.22083	250.93141	-496.65366	647.76434	241.10072	-576.96057	696.94086	105.68629	-613.69739	670.76453	86.340546	-696.97894	823.22723	35.252045	-727.67084	887.44348	44.485321	-657.97656	706.41357	51.028011	-524.65057	647.77417	101.58414	-452.99805	508.95261	268.97998	-553.67993	591.81134	16.580931	-655.37134	907.9328	1260.6636	-584.90009
2980	29.79	1173.757	1419.5404	-478.44376	1162.8818	1429.3918	-740.82086	1138.3184	1488.9583	-600.47717	1201.329	1297.249	-620.12054	790.11407	1079.0521	-588.89441	959.69006	1017.4109	-467.44012	966.5625	1022.4163	-728.1438	883.43091	955.5896	-419.67004	879.85571	955.64917	-783.89545	986.60327	511.64539	-454.17166	974.73785	506.50204	-578.53961	871.06903	500.57852	-612.04358	893.44153	501.03421	-723.22528	893.65442	397.48636	-673.60431	1012.3976	429.02472	-507.09039	637.09045	246.09373	-496.58127	667.03223	238.23486	-577.13336	686.94513	106.22216	-613.79315	660.75067	86.714165	-696.96808	813.10309	35.324677	-727.68323	877.51099	44.404026	-658.13483	736.06488	51.559692	-523.97913	675.61646	99.695831	-452.66638	528.05048	259.41385	-553.49927	581.73059	17.112015	-655.33551	907.70984	1263.0649	-586.01373
2981	29.8	1173.4812	1420.9193	-478.0603	1163.4531	1430.8079	-740.1308	1138.2487	1490.4022	-600.29034	1201.0958	1298.3701	-619.47565	789.3894	1080.9036	-590.21124	958.91718	1020.5097	-467.92493	967.01007	1023.6146	-727.85803	882.56494	959.14026	-418.48746	878.85211	956.68494	-783.82867	998.43762	518.45129	-454.7421	984.04297	513.60968	-577.83875	859.56067	501.10965	-611.99652	882.79718	501.94656	-723.49524	881.37354	398.45633	-673.87	1026.6837	436.61298	-508.02887	657.45343	240.82062	-496.62411	688.33484	234.02808	-577.20343	677.01923	106.62595	-614.02411	650.62268	87.276199	-697.14539	802.84613	35.162769	-727.87585	867.39465	44.373943	-658.17725	765.94873	51.71011	-522.67682	703.1629	97.04763	-451.91241	547.63483	248.69026	-553.41779	571.69073	17.662954	-655.34674	907.40448	1264.9646	-587.19324
